HIERARCHY
ROOT Hips
{
     OFFSET 21.06130 94.44770 -28.80040
     CHANNELS 6 Xposition Yposition Zposition Zrotation Xrotation Yrotation
     JOINT Spine
     {
          OFFSET 0.00000 11.89050 -0.00000
          CHANNELS 3 Zrotation Xrotation Yrotation
          JOINT Spine1
          {
               OFFSET -0.00000 25.65740 0.12766
               CHANNELS 3 Zrotation Xrotation Yrotation
               JOINT HEad
               {
                    OFFSET -0.00000 8.73416 0.01134
                    CHANNELS 3 Zrotation Xrotation Yrotation
                    End Site
                    {
                         OFFSET -0.29000 12.77420 2.51395
                    }
               }
               JOINT LeftShoulder1
               {
                    OFFSET 8.99000 -0.36225 -0.22000
                    CHANNELS 3 Zrotation Xrotation Yrotation
                    JOINT LeftArm
                    {
                         OFFSET 10.28270 -0.00338 0.32212
                         CHANNELS 3 Zrotation Xrotation Yrotation
                         JOINT LeftForeArm
                         {
                              OFFSET 32.76690 0.09914 -1.42434
                              CHANNELS 3 Zrotation Xrotation Yrotation
                              JOINT LeftHand
                              {
                                   OFFSET 27.56430 0.08536 1.02216
                                   CHANNELS 3 Zrotation Xrotation Yrotation
                                   End Site
                                   {
                                        OFFSET 16.74430 -0.60000 1.50291
                                   }
                              }
                         }
                    }
               }
               JOINT RightShoulder
               {
                    OFFSET -8.99000 -0.36225 -0.22000
                    CHANNELS 3 Zrotation Xrotation Yrotation
                    JOINT RightArm
                    {
                         OFFSET -10.28270 -0.00338 0.32212
                         CHANNELS 3 Zrotation Xrotation Yrotation
                         JOINT RightForeArm
                         {
                              OFFSET -32.89710 0.09914 -1.42434
                              CHANNELS 3 Zrotation Xrotation Yrotation
                              JOINT RightHand
                              {
                                   OFFSET -27.49210 0.08536 1.02216
                                   CHANNELS 3 Zrotation Xrotation Yrotation
                                   End Site
                                   {
                                        OFFSET -16.63120 -0.60000 1.50291
                                   }
                              }
                         }
                    }
               }
          }
     }
     JOINT LeftUpLeg
     {
          OFFSET 8.94580 -8.66707 0.10165
          CHANNELS 3 Zrotation Xrotation Yrotation
          JOINT LeftLeg
          {
               OFFSET 0.00000 -44.42270 1.37270
               CHANNELS 3 Zrotation Xrotation Yrotation
               JOINT LeftFoot
               {
                    OFFSET -0.25355 -42.09240 -1.46059
                    CHANNELS 3 Zrotation Xrotation Yrotation
                    JOINT LeftToes
                    {
                         OFFSET -0.04000 -4.41509 8.49910
                         CHANNELS 3 Zrotation Xrotation Yrotation
                         End Site
                         {
                              OFFSET 0.08000 -0.04745 9.77979
                         }
                    }
               }
          }
     }
     JOINT RightUpLeg
     {
          OFFSET -8.94580 -8.66707 0.10165
          CHANNELS 3 Zrotation Xrotation Yrotation
          JOINT RightLeg
          {
               OFFSET -0.00000 -44.42270 1.37270
               CHANNELS 3 Zrotation Xrotation Yrotation
               JOINT RightFoot
               {
                    OFFSET 0.25355 -42.09240 -1.46059
                    CHANNELS 3 Zrotation Xrotation Yrotation
                    JOINT RightToes
                    {
                         OFFSET 0.04000 -4.41509 8.49910
                         CHANNELS 3 Zrotation Xrotation Yrotation
                         End Site
                         {
                              OFFSET -0.08000 -0.13745 9.77979
                         }
                    }
               }
          }
     }
}
MOTION
Frames: 14
Frame Time: 0.01667
21.97690 94.32150 -30.54060 -8.58402 -13.52250 -30.80930 -2.03979 11.63360 -0.26381 -3.93847 23.19680 0.11771 -4.07375 -1.72122 14.06890 -0.00000 0.00000 -0.00000 -108.17900 -46.53770 -94.17070 -39.87210 37.99410 -71.69900 18.48280 6.75448 -15.80310 7.66945 0.96066 5.60596 86.06200 -4.53331 86.30120 20.63810 24.69200 80.93800 1.27548 10.22280 14.21740 19.90800 -2.12482 -12.48860 -20.92600 4.85110 59.40580 -5.13700 10.17980 0.72020 9.01257 -8.44038 -57.06750 -22.90340 11.05520 8.52254 42.19790 8.46479 -38.20690 -28.51480 -7.63861 -0.16624 2.73460 -23.87990 10.14960 
21.83780 94.40620 -30.30440 -8.68231 -13.36550 -31.14080 -2.14243 11.62100 -0.16673 -3.98989 23.16390 0.28012 -4.01841 -1.23990 13.79090 -0.00000 0.00000 -0.00000 -107.25200 -46.37070 -93.15650 -39.10350 37.44310 -72.12340 18.49690 6.74273 -15.86050 7.48793 0.91205 5.27097 87.35620 -2.84850 87.51940 21.20490 25.16330 81.43700 1.32105 10.22790 14.09720 20.10820 -2.04147 -12.84570 -21.06200 4.91946 59.92350 -5.57364 9.83801 0.77357 9.16159 -7.91765 -57.06650 -22.74380 11.21780 8.69547 41.98020 8.21965 -37.78410 -28.17740 -7.61413 -0.15993 2.67598 -23.60040 10.03290 
21.68570 94.49780 -30.06280 -8.75395 -13.26030 -31.46030 -2.39535 11.61980 -0.06369 -4.08130 23.13750 0.41001 -3.86156 -0.73592 13.52590 -0.00000 0.00000 -0.00000 -106.52600 -46.25560 -92.24610 -38.15060 37.14140 -72.60640 18.57950 6.71742 -15.92480 7.19462 0.87007 5.04995 88.47990 -1.16445 88.63050 21.45260 25.49020 81.87400 1.27245 10.21720 13.92900 20.31690 -1.82039 -13.34650 -21.26630 4.71421 60.63160 -5.78934 9.60111 0.79599 9.24331 -7.69463 -57.19640 -22.65790 11.47760 9.03738 41.79250 7.75696 -37.46580 -28.02590 -7.50097 -0.13071 2.67213 -23.60710 9.96089 
21.53890 94.52500 -29.78030 -8.91460 -13.13860 -31.77780 -2.48322 11.60230 -0.00583 -4.12245 23.10020 0.49217 -3.70783 -0.22161 13.24850 -0.00000 0.00000 -0.00000 -106.09100 -46.24450 -91.52380 -37.31410 37.09180 -72.98530 18.67370 6.69688 -15.94580 6.80026 0.83916 4.98169 89.43220 0.43488 89.62520 21.54190 25.64310 82.12220 1.10468 10.18890 13.82180 20.58960 -1.78961 -13.90920 -21.55580 4.91995 61.52840 -5.96012 9.29960 0.80792 9.20447 -7.95556 -57.45590 -22.51770 11.71500 9.40936 41.66990 7.41505 -37.25760 -27.95060 -7.43616 -0.11410 2.71148 -23.83450 9.94325 
21.38480 94.52690 -29.47300 -9.07346 -13.05660 -32.06080 -2.56652 11.58330 0.02752 -4.18805 23.06240 0.53639 -3.64841 0.31551 12.93100 -0.00000 0.00000 -0.00000 -105.79500 -46.27440 -90.91010 -36.75430 37.12540 -73.20490 18.70560 6.69561 -15.91790 6.34031 0.81704 5.03585 90.23930 1.91303 90.50820 21.63010 25.62790 82.11150 0.84687 10.14850 13.83010 20.87040 -1.75681 -14.63010 -21.95380 5.09847 62.60230 -5.93033 8.97378 0.78874 9.07802 -8.50812 -57.70610 -22.40720 11.95670 9.75630 41.56450 7.18832 -37.09580 -27.91500 -7.39376 -0.10325 2.78348 -24.21110 10.00440 
21.22460 94.50180 -29.14490 -9.21796 -13.02300 -32.30570 -2.63778 11.55500 0.05160 -4.29213 23.00970 0.58249 -3.64599 0.86899 12.56030 -0.00000 0.00000 -0.00000 -105.30600 -46.20600 -90.19250 -36.36270 36.99240 -73.36550 18.62810 6.71443 -15.88860 5.91589 0.79856 5.10988 90.89140 3.26333 91.27620 21.80010 25.48620 81.86600 0.56147 10.10470 13.92530 21.17190 -1.76347 -15.66850 -22.55810 5.24162 63.92850 -5.86768 8.49906 0.75840 8.95822 -8.94208 -57.76010 -22.32840 12.16220 10.02320 41.46240 7.18251 -36.98130 -27.86370 -7.38950 -0.10228 2.89138 -24.73840 10.16490 
21.06130 94.44770 -28.80040 -9.35255 -13.03690 -32.53030 -2.70337 11.51470 0.08525 -4.43847 22.93630 0.66702 -3.56093 1.38056 12.14190 -0.00000 0.00000 -0.00000 -104.45000 -45.95490 -89.27670 -35.92620 36.56540 -73.62180 18.44630 6.74934 -15.87650 5.59745 0.77905 5.10839 91.38300 4.50139 91.93800 22.07530 25.27630 81.47320 0.28015 10.06130 14.04880 21.51810 -1.86888 -17.13590 -23.45990 5.38335 65.61460 -5.94571 7.81216 0.73816 8.92095 -8.96853 -57.53060 -22.28330 12.31780 10.24720 41.37850 7.38499 -36.95020 -27.80820 -7.40039 -0.10522 3.04633 -25.47650 10.39580 
20.90150 94.36590 -28.44100 -9.49011 -13.09080 -32.75310 -2.77575 11.47630 0.12633 -4.61770 22.86810 0.77710 -3.28149 1.73580 11.73780 -0.00000 0.00000 -0.00000 -103.35700 -45.56180 -88.29460 -35.33350 35.89070 -74.05540 18.19400 6.79825 -15.85610 5.31100 0.75414 5.02555 91.79490 5.65756 92.53920 22.42680 25.05050 81.04450 0.00213 10.01780 14.15680 21.92100 -2.11980 -19.01510 -24.69570 5.56365 67.74040 -6.20645 6.98992 0.73409 8.95716 -8.64827 -57.09800 -22.27170 12.44450 10.48500 41.33090 7.70624 -37.02120 -27.83480 -7.38419 -0.10099 3.25281 -26.46800 10.62440 
20.77010 94.21290 -28.04640 -9.72952 -13.11740 -32.99300 -2.64180 11.44040 0.12717 -4.74353 22.82380 0.87447 -2.80732 1.83299 11.43420 -0.00000 0.00000 -0.00000 -102.33400 -45.15410 -87.45500 -34.65710 35.14900 -74.60580 17.91490 6.85383 -15.82300 4.97373 0.72393 4.91156 92.21920 6.74867 93.12480 22.76200 24.85670 80.69150 -0.25590 9.97665 14.20980 22.40150 -2.76720 -21.09980 -26.27170 6.30169 70.31370 -6.78223 6.13376 0.76253 8.98661 -8.33610 -56.65160 -22.18390 12.49780 10.67360 41.34310 8.25657 -37.20020 -28.01620 -7.38443 -0.10058 3.50803 -27.71740 10.79330 
20.62760 94.16250 -27.68970 -9.78793 -13.28720 -33.22450 -3.03452 11.45000 0.19783 -5.06090 22.82590 0.96496 -2.21927 1.66586 11.24890 -0.00000 0.00000 -0.00000 -101.72300 -44.89010 -86.89730 -34.13510 34.64720 -75.08150 17.69740 6.89551 -15.80700 4.67342 0.69604 4.79161 92.63160 7.75608 93.68620 22.97990 24.74170 80.48770 -0.46522 9.94293 14.17290 22.85130 -3.08341 -23.16230 -28.01480 6.13819 73.05090 -6.77415 5.80410 0.74420 8.92452 -8.43182 -56.38730 -22.34910 12.73940 10.99210 41.30550 8.37365 -37.34680 -28.58150 -7.10327 -0.02495 3.81407 -29.23100 10.90570 
20.52010 94.09040 -27.31390 -9.92077 -13.42960 -33.51950 -3.32403 11.44590 0.26685 -5.34530 22.80950 1.08144 -1.60299 1.33423 11.12120 -0.00000 0.00000 -0.00000 -101.67200 -44.85790 -86.58560 -33.96330 34.60920 -75.33220 17.65860 6.89628 -15.84780 4.55417 0.67624 4.63757 92.93800 8.65391 94.17160 23.07470 24.72200 80.42420 -0.63446 9.91569 14.06090 23.31660 -3.66625 -24.57220 -29.84100 6.61130 75.64550 -6.69231 5.91358 0.74027 8.72762 -9.15661 -56.43420 -22.48090 12.95540 11.26450 41.27980 8.55230 -37.49550 -29.38260 -6.72960 0.08057 4.17478 -30.99960 10.99960 
20.42790 94.07430 -26.94170 -10.01660 -13.60730 -33.89860 -3.77808 11.43080 0.39327 -5.66595 22.75740 1.25473 -1.01904 0.99846 10.98910 -0.00000 0.00000 -0.00000 -102.01200 -45.01480 -86.32250 -34.12650 34.94210 -75.37160 17.82340 6.84474 -15.98920 4.63492 0.66027 4.39403 93.09180 9.45463 94.53840 23.13510 24.76140 80.41740 -0.80271 9.88895 13.94450 23.73270 -4.17204 -24.98420 -31.52500 7.29022 77.74000 -6.16394 6.61983 0.71113 8.41149 -10.43710 -56.82460 -22.72110 13.22860 11.58370 41.22190 8.55538 -37.53770 -30.35170 -6.14865 0.25177 4.57179 -32.91730 11.08170 
20.35050 94.11490 -26.55390 -10.07640 -13.80790 -34.36690 -4.36765 11.40050 0.56574 -5.99760 22.66480 1.46722 -0.50485 0.79125 10.85120 -0.00000 0.00000 -0.00000 -102.53500 -45.31160 -85.98210 -34.51640 35.43030 -75.26560 18.08680 6.75484 -16.25710 4.83603 0.64078 4.04054 93.11250 10.20720 94.79090 23.25920 24.79750 80.36830 -0.98379 9.86041 13.88090 24.07330 -4.56697 -24.37440 -32.91970 8.23443 79.27450 -5.25181 7.76487 0.64274 8.03697 -11.97880 -57.51310 -23.07340 13.54340 11.95120 41.13020 8.42891 -37.39660 -31.29930 -5.39378 0.48322 4.95847 -34.79140 11.10650 
20.29400 94.18380 -26.11240 -10.12900 -13.98860 -34.91510 -5.00488 11.35640 0.74108 -6.31109 22.54290 1.66386 -0.07405 0.74429 10.76540 -0.00000 0.00000 -0.00000 -103.25700 -45.79890 -85.65830 -35.09190 36.00540 -75.01250 18.33490 6.64830 -16.63890 5.05613 0.61522 3.62183 93.06200 10.97010 94.97310 23.49670 24.78290 80.22160 -1.15811 9.83296 13.86310 24.35450 -4.90203 -23.04600 -33.97310 9.42434 80.41570 -4.18153 9.04238 0.53753 7.65783 -13.51170 -58.39610 -23.50260 13.85980 12.37290 41.02100 8.25645 -37.05890 -32.05770 -4.53519 0.75315 5.30308 -36.50500 11.05500 
